<mxfile host="app.diagrams.net" agent="Mozilla/5.0 (Windows NT 10.0; Win64; x64) AppleWebKit/537.36 (KHTML, like Gecko) Chrome/129.0.0.0 Safari/537.36 Edg/129.0.0.0" version="24.7.17">
  <diagram name="Page-1" id="OtQAulS7_S1WCTZlOf3j">
    <mxGraphModel dx="2253" dy="789" grid="1" gridSize="10" guides="1" tooltips="1" connect="1" arrows="1" fold="1" page="1" pageScale="1" pageWidth="827" pageHeight="1169" math="0" shadow="0">
      <root>
        <mxCell id="0" />
        <mxCell id="1" parent="0" />
        <mxCell id="iiWpJhq-486meEdPWquK-2" value="Windows 10 Client 1 - Wazuh agent" style="fontColor=#0066CC;verticalAlign=top;verticalLabelPosition=bottom;labelPosition=center;align=center;html=1;outlineConnect=0;fillColor=#CCCCCC;strokeColor=#6881B3;gradientColor=none;gradientDirection=north;strokeWidth=2;shape=mxgraph.networks.pc;" parent="1" vertex="1">
          <mxGeometry x="384" y="760" width="60" height="50" as="geometry" />
        </mxCell>
        <mxCell id="fszv_x5KjqOqWNQMTN6P-21" style="rounded=0;orthogonalLoop=1;jettySize=auto;html=1;entryX=0;entryY=0.5;entryDx=0;entryDy=0;shape=link;fillColor=#0050ef;strokeColor=#001DBC;" parent="1" source="fszv_x5KjqOqWNQMTN6P-5" target="fszv_x5KjqOqWNQMTN6P-8" edge="1">
          <mxGeometry relative="1" as="geometry" />
        </mxCell>
        <mxCell id="fszv_x5KjqOqWNQMTN6P-22" value="3. Send Alerts" style="edgeLabel;html=1;align=center;verticalAlign=middle;resizable=0;points=[];" parent="fszv_x5KjqOqWNQMTN6P-21" vertex="1" connectable="0">
          <mxGeometry x="0.1459" y="-2" relative="1" as="geometry">
            <mxPoint as="offset" />
          </mxGeometry>
        </mxCell>
        <mxCell id="fszv_x5KjqOqWNQMTN6P-37" style="rounded=0;orthogonalLoop=1;jettySize=auto;html=1;shape=link;fillColor=#e51400;strokeColor=#B20000;" parent="1" source="fszv_x5KjqOqWNQMTN6P-5" target="iiWpJhq-486meEdPWquK-2" edge="1">
          <mxGeometry relative="1" as="geometry" />
        </mxCell>
        <mxCell id="fszv_x5KjqOqWNQMTN6P-39" value="8. Perform Responsive Action&lt;span style=&quot;white-space: pre;&quot;&gt;&#x9;&lt;/span&gt;" style="edgeLabel;html=1;align=center;verticalAlign=middle;resizable=0;points=[];" parent="fszv_x5KjqOqWNQMTN6P-37" vertex="1" connectable="0">
          <mxGeometry x="-0.0232" y="4" relative="1" as="geometry">
            <mxPoint as="offset" />
          </mxGeometry>
        </mxCell>
        <mxCell id="fszv_x5KjqOqWNQMTN6P-5" value="Wazuh Manager&amp;nbsp;" style="image;aspect=fixed;perimeter=ellipsePerimeter;html=1;align=center;shadow=0;dashed=0;spacingTop=3;image=img/lib/active_directory/internet_cloud.svg;" parent="1" vertex="1">
          <mxGeometry x="50" y="290" width="79.37" height="50" as="geometry" />
        </mxCell>
        <mxCell id="fszv_x5KjqOqWNQMTN6P-19" style="edgeStyle=orthogonalEdgeStyle;rounded=0;orthogonalLoop=1;jettySize=auto;html=1;shape=link;fillColor=#647687;strokeColor=#314354;" parent="1" source="fszv_x5KjqOqWNQMTN6P-6" target="fszv_x5KjqOqWNQMTN6P-5" edge="1">
          <mxGeometry relative="1" as="geometry" />
        </mxCell>
        <mxCell id="fszv_x5KjqOqWNQMTN6P-20" value="2. Received Events" style="edgeLabel;html=1;align=center;verticalAlign=middle;resizable=0;points=[];" parent="fszv_x5KjqOqWNQMTN6P-19" vertex="1" connectable="0">
          <mxGeometry x="0.2424" y="-4" relative="1" as="geometry">
            <mxPoint x="23" y="19" as="offset" />
          </mxGeometry>
        </mxCell>
        <mxCell id="fszv_x5KjqOqWNQMTN6P-36" style="edgeStyle=orthogonalEdgeStyle;rounded=0;orthogonalLoop=1;jettySize=auto;html=1;shape=link;fillColor=#e51400;strokeColor=#B20000;" parent="1" source="fszv_x5KjqOqWNQMTN6P-6" target="fszv_x5KjqOqWNQMTN6P-8" edge="1">
          <mxGeometry relative="1" as="geometry" />
        </mxCell>
        <mxCell id="fszv_x5KjqOqWNQMTN6P-6" value="Internet" style="image;aspect=fixed;perimeter=ellipsePerimeter;html=1;align=center;shadow=0;dashed=0;spacingTop=3;image=img/lib/active_directory/internet_cloud.svg;" parent="1" vertex="1">
          <mxGeometry x="374.32" y="290" width="79.37" height="50" as="geometry" />
        </mxCell>
        <mxCell id="fszv_x5KjqOqWNQMTN6P-7" value="The HIVE" style="image;aspect=fixed;perimeter=ellipsePerimeter;html=1;align=center;shadow=0;dashed=0;spacingTop=3;image=img/lib/active_directory/internet_cloud.svg;" parent="1" vertex="1">
          <mxGeometry x="650.3199999999999" y="280" width="79.37" height="50" as="geometry" />
        </mxCell>
        <mxCell id="fszv_x5KjqOqWNQMTN6P-23" style="rounded=0;orthogonalLoop=1;jettySize=auto;html=1;entryX=0.5;entryY=0;entryDx=0;entryDy=0;shape=link;fillColor=#008a00;strokeColor=#005700;" parent="1" source="fszv_x5KjqOqWNQMTN6P-8" target="fszv_x5KjqOqWNQMTN6P-6" edge="1">
          <mxGeometry relative="1" as="geometry">
            <Array as="points">
              <mxPoint x="370" y="150" />
            </Array>
          </mxGeometry>
        </mxCell>
        <mxCell id="fszv_x5KjqOqWNQMTN6P-24" value="4. Enrich IOC&#39;s" style="edgeLabel;html=1;align=center;verticalAlign=middle;resizable=0;points=[];" parent="fszv_x5KjqOqWNQMTN6P-23" vertex="1" connectable="0">
          <mxGeometry x="0.2132" y="-6" relative="1" as="geometry">
            <mxPoint x="-6" y="-26" as="offset" />
          </mxGeometry>
        </mxCell>
        <mxCell id="fszv_x5KjqOqWNQMTN6P-28" style="rounded=0;orthogonalLoop=1;jettySize=auto;html=1;entryX=0.5;entryY=0;entryDx=0;entryDy=0;shape=link;fillColor=#fa6800;strokeColor=#C73500;" parent="1" source="fszv_x5KjqOqWNQMTN6P-8" target="fszv_x5KjqOqWNQMTN6P-6" edge="1">
          <mxGeometry relative="1" as="geometry">
            <Array as="points">
              <mxPoint x="460" y="150" />
            </Array>
          </mxGeometry>
        </mxCell>
        <mxCell id="fszv_x5KjqOqWNQMTN6P-29" value="6. Send Emails" style="edgeLabel;html=1;align=center;verticalAlign=middle;resizable=0;points=[];" parent="fszv_x5KjqOqWNQMTN6P-28" vertex="1" connectable="0">
          <mxGeometry x="-0.0234" y="7" relative="1" as="geometry">
            <mxPoint as="offset" />
          </mxGeometry>
        </mxCell>
        <mxCell id="fszv_x5KjqOqWNQMTN6P-34" style="edgeStyle=orthogonalEdgeStyle;rounded=0;orthogonalLoop=1;jettySize=auto;html=1;shape=link;fillColor=#e51400;strokeColor=#B20000;" parent="1" source="fszv_x5KjqOqWNQMTN6P-8" target="fszv_x5KjqOqWNQMTN6P-5" edge="1">
          <mxGeometry relative="1" as="geometry" />
        </mxCell>
        <mxCell id="fszv_x5KjqOqWNQMTN6P-35" value="8. Send Response Action" style="edgeLabel;html=1;align=center;verticalAlign=middle;resizable=0;points=[];" parent="fszv_x5KjqOqWNQMTN6P-34" vertex="1" connectable="0">
          <mxGeometry x="0.3363" y="3" relative="1" as="geometry">
            <mxPoint as="offset" />
          </mxGeometry>
        </mxCell>
        <mxCell id="fszv_x5KjqOqWNQMTN6P-8" value="Shuffle" style="image;aspect=fixed;perimeter=ellipsePerimeter;html=1;align=center;shadow=0;dashed=0;spacingTop=3;image=img/lib/active_directory/internet_cloud.svg;" parent="1" vertex="1">
          <mxGeometry x="374" y="20" width="79.37" height="50" as="geometry" />
        </mxCell>
        <mxCell id="fszv_x5KjqOqWNQMTN6P-9" value="Router" style="sketch=0;points=[[0.5,0,0],[1,0.5,0],[0.5,1,0],[0,0.5,0],[0.145,0.145,0],[0.8555,0.145,0],[0.855,0.8555,0],[0.145,0.855,0]];verticalLabelPosition=bottom;html=1;verticalAlign=top;aspect=fixed;align=center;pointerEvents=1;shape=mxgraph.cisco19.rect;prIcon=router;fillColor=#FAFAFA;strokeColor=#005073;" parent="1" vertex="1">
          <mxGeometry x="379" y="490" width="70" height="70" as="geometry" />
        </mxCell>
        <mxCell id="fszv_x5KjqOqWNQMTN6P-11" value="SOC Analyst" style="fontColor=#0066CC;verticalAlign=top;verticalLabelPosition=bottom;labelPosition=center;align=center;html=1;outlineConnect=0;fillColor=#CCCCCC;strokeColor=#6881B3;gradientColor=none;gradientDirection=north;strokeWidth=2;shape=mxgraph.networks.pc;" parent="1" vertex="1">
          <mxGeometry x="660" y="490" width="60" height="50" as="geometry" />
        </mxCell>
        <mxCell id="fszv_x5KjqOqWNQMTN6P-13" style="rounded=0;orthogonalLoop=1;jettySize=auto;html=1;shape=link;fillColor=#e1d5e7;strokeColor=#9673a6;" parent="1" source="iiWpJhq-486meEdPWquK-2" target="fszv_x5KjqOqWNQMTN6P-9" edge="1">
          <mxGeometry relative="1" as="geometry" />
        </mxCell>
        <mxCell id="fszv_x5KjqOqWNQMTN6P-16" value="1. Send Events" style="edgeLabel;html=1;align=center;verticalAlign=middle;resizable=0;points=[];" parent="1" vertex="1" connectable="0">
          <mxGeometry x="414" y="640" as="geometry" />
        </mxCell>
        <mxCell id="fszv_x5KjqOqWNQMTN6P-18" style="edgeStyle=orthogonalEdgeStyle;rounded=0;orthogonalLoop=1;jettySize=auto;html=1;entryX=0.5;entryY=0;entryDx=0;entryDy=0;entryPerimeter=0;shape=link;strokeColor=#314354;fillColor=#647687;" parent="1" source="fszv_x5KjqOqWNQMTN6P-6" target="fszv_x5KjqOqWNQMTN6P-9" edge="1">
          <mxGeometry relative="1" as="geometry" />
        </mxCell>
        <mxCell id="fszv_x5KjqOqWNQMTN6P-26" style="rounded=0;orthogonalLoop=1;jettySize=auto;html=1;entryX=0.387;entryY=0.06;entryDx=0;entryDy=0;entryPerimeter=0;shape=link;fillColor=#e51400;strokeColor=#B20000;" parent="1" source="fszv_x5KjqOqWNQMTN6P-8" target="fszv_x5KjqOqWNQMTN6P-7" edge="1">
          <mxGeometry relative="1" as="geometry" />
        </mxCell>
        <mxCell id="fszv_x5KjqOqWNQMTN6P-27" value="5. Send Alerts" style="edgeLabel;html=1;align=center;verticalAlign=middle;resizable=0;points=[];" parent="fszv_x5KjqOqWNQMTN6P-26" vertex="1" connectable="0">
          <mxGeometry x="-0.1427" y="-6" relative="1" as="geometry">
            <mxPoint y="-1" as="offset" />
          </mxGeometry>
        </mxCell>
        <mxCell id="fszv_x5KjqOqWNQMTN6P-30" style="rounded=0;orthogonalLoop=1;jettySize=auto;html=1;entryX=0;entryY=0.5;entryDx=0;entryDy=0;entryPerimeter=0;shape=link;fillColor=#d80073;strokeColor=#A50040;" parent="1" source="fszv_x5KjqOqWNQMTN6P-6" target="fszv_x5KjqOqWNQMTN6P-11" edge="1">
          <mxGeometry relative="1" as="geometry">
            <Array as="points">
              <mxPoint x="590" y="380" />
            </Array>
          </mxGeometry>
        </mxCell>
        <mxCell id="fszv_x5KjqOqWNQMTN6P-31" value="7. Send and Received Emails" style="edgeLabel;html=1;align=center;verticalAlign=middle;resizable=0;points=[];" parent="fszv_x5KjqOqWNQMTN6P-30" vertex="1" connectable="0">
          <mxGeometry x="-0.0725" y="3" relative="1" as="geometry">
            <mxPoint as="offset" />
          </mxGeometry>
        </mxCell>
        <mxCell id="fszv_x5KjqOqWNQMTN6P-32" style="rounded=0;orthogonalLoop=1;jettySize=auto;html=1;entryX=0;entryY=0.5;entryDx=0;entryDy=0;entryPerimeter=0;shape=link;fillColor=#e51400;strokeColor=#B20000;" parent="1" source="fszv_x5KjqOqWNQMTN6P-6" target="fszv_x5KjqOqWNQMTN6P-11" edge="1">
          <mxGeometry relative="1" as="geometry">
            <Array as="points">
              <mxPoint x="500" y="450" />
            </Array>
          </mxGeometry>
        </mxCell>
        <mxCell id="fszv_x5KjqOqWNQMTN6P-33" value="8. Send Response Action" style="edgeLabel;html=1;align=center;verticalAlign=middle;resizable=0;points=[];" parent="fszv_x5KjqOqWNQMTN6P-32" vertex="1" connectable="0">
          <mxGeometry x="-0.2148" y="-1" relative="1" as="geometry">
            <mxPoint as="offset" />
          </mxGeometry>
        </mxCell>
        <mxCell id="fszv_x5KjqOqWNQMTN6P-51" style="edgeStyle=orthogonalEdgeStyle;rounded=0;orthogonalLoop=1;jettySize=auto;html=1;" parent="1" source="fszv_x5KjqOqWNQMTN6P-48" target="fszv_x5KjqOqWNQMTN6P-49" edge="1">
          <mxGeometry relative="1" as="geometry" />
        </mxCell>
        <mxCell id="fszv_x5KjqOqWNQMTN6P-48" value="Windows 10&lt;br&gt;Send Events" style="text;html=1;align=center;verticalAlign=middle;resizable=0;points=[];autosize=1;strokeColor=none;fillColor=none;" parent="1" vertex="1">
          <mxGeometry x="-100" y="1050" width="90" height="40" as="geometry" />
        </mxCell>
        <mxCell id="fszv_x5KjqOqWNQMTN6P-52" style="edgeStyle=orthogonalEdgeStyle;rounded=0;orthogonalLoop=1;jettySize=auto;html=1;" parent="1" source="fszv_x5KjqOqWNQMTN6P-49" target="fszv_x5KjqOqWNQMTN6P-50" edge="1">
          <mxGeometry relative="1" as="geometry" />
        </mxCell>
        <mxCell id="fszv_x5KjqOqWNQMTN6P-49" value="Wazuh Manager&lt;br&gt;Trigger alerts and Perform Response Action" style="text;html=1;align=center;verticalAlign=middle;resizable=0;points=[];autosize=1;strokeColor=none;fillColor=none;" parent="1" vertex="1">
          <mxGeometry x="60" y="1050" width="260" height="40" as="geometry" />
        </mxCell>
        <mxCell id="fszv_x5KjqOqWNQMTN6P-54" style="edgeStyle=orthogonalEdgeStyle;rounded=0;orthogonalLoop=1;jettySize=auto;html=1;" parent="1" source="fszv_x5KjqOqWNQMTN6P-50" target="fszv_x5KjqOqWNQMTN6P-53" edge="1">
          <mxGeometry relative="1" as="geometry" />
        </mxCell>
        <mxCell id="fszv_x5KjqOqWNQMTN6P-56" style="edgeStyle=orthogonalEdgeStyle;rounded=0;orthogonalLoop=1;jettySize=auto;html=1;" parent="1" source="fszv_x5KjqOqWNQMTN6P-50" target="fszv_x5KjqOqWNQMTN6P-55" edge="1">
          <mxGeometry relative="1" as="geometry" />
        </mxCell>
        <mxCell id="fszv_x5KjqOqWNQMTN6P-59" style="edgeStyle=orthogonalEdgeStyle;rounded=0;orthogonalLoop=1;jettySize=auto;html=1;" parent="1" source="fszv_x5KjqOqWNQMTN6P-50" target="fszv_x5KjqOqWNQMTN6P-57" edge="1">
          <mxGeometry relative="1" as="geometry" />
        </mxCell>
        <mxCell id="fszv_x5KjqOqWNQMTN6P-50" value="Shuffle&lt;br&gt;Received Wazuh alerts &amp;amp; Send responsive action" style="text;html=1;align=center;verticalAlign=middle;resizable=0;points=[];autosize=1;strokeColor=none;fillColor=none;" parent="1" vertex="1">
          <mxGeometry x="390" y="1050" width="290" height="40" as="geometry" />
        </mxCell>
        <mxCell id="fszv_x5KjqOqWNQMTN6P-53" value="OSINT&lt;br&gt;Enrich IOCS" style="text;html=1;align=center;verticalAlign=middle;resizable=0;points=[];autosize=1;strokeColor=none;fillColor=none;" parent="1" vertex="1">
          <mxGeometry x="490" y="920" width="90" height="40" as="geometry" />
        </mxCell>
        <mxCell id="fszv_x5KjqOqWNQMTN6P-55" value="The HIVE&lt;br&gt;Create alert in Case Management&lt;div&gt;&lt;br&gt;&lt;/div&gt;" style="text;html=1;align=center;verticalAlign=middle;resizable=0;points=[];autosize=1;strokeColor=none;fillColor=none;" parent="1" vertex="1">
          <mxGeometry x="435" y="1190" width="200" height="60" as="geometry" />
        </mxCell>
        <mxCell id="fszv_x5KjqOqWNQMTN6P-57" value="Emails&lt;br&gt;Send emails &amp;amp; Responsive action" style="text;html=1;align=center;verticalAlign=middle;resizable=0;points=[];autosize=1;strokeColor=none;fillColor=none;" parent="1" vertex="1">
          <mxGeometry x="860" y="1050" width="200" height="40" as="geometry" />
        </mxCell>
      </root>
    </mxGraphModel>
  </diagram>
</mxfile>
